<svg class="main-svg" xmlns="http://www.w3.org/2000/svg" xmlns:xlink="http://www.w3.org/1999/xlink" width="600" height="400" style=""><rect x="0" y="0" width="600" height="400" style="fill: rgb(255, 255, 255); fill-opacity: 1;"/><defs id="defs-1233b6"><g class="clips"><clipPath id="clip1233b6xyplot" class="plotclip"><rect width="477.2396872265967" height="311.6633858267717"/></clipPath><clipPath class="axesclip" id="clip1233b6x"><rect x="48.28918416447943" y="0" width="477.2396872265967" height="400"/></clipPath><clipPath class="axesclip" id="clip1233b6y"><rect x="0" y="41.04330708661415" width="600" height="311.6633858267717"/></clipPath><clipPath class="axesclip" id="clip1233b6xy"><rect x="48.28918416447943" y="41.04330708661415" width="477.2396872265967" height="311.6633858267717"/></clipPath></g><g class="gradients"/><g class="patterns"/></defs><g class="bglayer"/><g class="layer-below"><g class="imagelayer"/><g class="shapelayer"/></g><g class="cartesianlayer"><g class="subplot xy"><g class="layer-subplot"><g class="shapelayer"/><g class="imagelayer"/></g><g class="gridlayer"><g class="x"><path class="xgrid crisp" transform="translate(74.53918416447942,0)" d="M0,41.04330708661415v311.6633858267717" style="stroke: rgb(0, 0, 0); stroke-opacity: 0.1; stroke-width: 0.5px;"/><path class="xgrid crisp" transform="translate(180.71918416447943,0)" d="M0,41.04330708661415v311.6633858267717" style="stroke: rgb(0, 0, 0); stroke-opacity: 0.1; stroke-width: 0.5px;"/><path class="xgrid crisp" transform="translate(286.9091841644794,0)" d="M0,41.04330708661415v311.6633858267717" style="stroke: rgb(0, 0, 0); stroke-opacity: 0.1; stroke-width: 0.5px;"/><path class="xgrid crisp" transform="translate(393.0991841644794,0)" d="M0,41.04330708661415v311.6633858267717" style="stroke: rgb(0, 0, 0); stroke-opacity: 0.1; stroke-width: 0.5px;"/><path class="xgrid crisp" transform="translate(499.27918416447943,0)" d="M0,41.04330708661415v311.6633858267717" style="stroke: rgb(0, 0, 0); stroke-opacity: 0.1; stroke-width: 0.5px;"/></g><g class="y"><path class="ygrid crisp" transform="translate(0,343.88330708661414)" d="M48.28918416447943,0h477.2396872265967" style="stroke: rgb(0, 0, 0); stroke-opacity: 0.1; stroke-width: 0.5px;"/><path class="ygrid crisp" transform="translate(0,297.62330708661415)" d="M48.28918416447943,0h477.2396872265967" style="stroke: rgb(0, 0, 0); stroke-opacity: 0.1; stroke-width: 0.5px;"/><path class="ygrid crisp" transform="translate(0,251.35330708661417)" d="M48.28918416447943,0h477.2396872265967" style="stroke: rgb(0, 0, 0); stroke-opacity: 0.1; stroke-width: 0.5px;"/><path class="ygrid crisp" transform="translate(0,205.08330708661413)" d="M48.28918416447943,0h477.2396872265967" style="stroke: rgb(0, 0, 0); stroke-opacity: 0.1; stroke-width: 0.5px;"/><path class="ygrid crisp" transform="translate(0,158.82330708661414)" d="M48.28918416447943,0h477.2396872265967" style="stroke: rgb(0, 0, 0); stroke-opacity: 0.1; stroke-width: 0.5px;"/><path class="ygrid crisp" transform="translate(0,112.55330708661415)" d="M48.28918416447943,0h477.2396872265967" style="stroke: rgb(0, 0, 0); stroke-opacity: 0.1; stroke-width: 0.5px;"/><path class="ygrid crisp" transform="translate(0,66.29330708661415)" d="M48.28918416447943,0h477.2396872265967" style="stroke: rgb(0, 0, 0); stroke-opacity: 0.1; stroke-width: 0.5px;"/></g></g><g class="zerolinelayer"/><path class="xlines-below"/><path class="ylines-below"/><g class="overlines-below"/><g class="xaxislayer-below"/><g class="yaxislayer-below"/><g class="overaxes-below"/><g class="plot" transform="translate(48.28918416447943,41.04330708661415)" clip-path="url(#clip1233b6xyplot)"><g class="scatterlayer mlayer"><g class="trace scatter traced0e513" style="stroke-miterlimit: 2;"><g class="fills"><g><path class="js-fill" d="M26.25,302.84L26.25,302.84L26.25,37.97L26.25,302.84L36.87,302.84L36.87,37.97L26.25,37.97L26.25,37.97" style="fill: rgb(0, 154, 250); fill-opacity: 1; stroke-width: 0;"/></g></g><g class="errorbars"/><g class="lines"><path class="js-line" d="M26.25,37.97L26.25,302.84L36.87,302.84L36.87,37.97L26.25,37.97L26.25,37.97" style="vector-effect: non-scaling-stroke; fill: none; stroke: rgb(0, 0, 0); stroke-opacity: 1; stroke-width: 1px; opacity: 1;"/></g><g class="points"/><g class="text"/></g><g class="trace scatter trace8fd3e9" style="stroke-miterlimit: 2;"><g class="fills"><g><path class="js-fill" d="M36.87,302.84L36.87,302.84L36.87,38.2L36.87,302.84L47.49,302.84L47.49,38.2L36.87,38.2L36.87,38.2" style="fill: rgb(0, 154, 250); fill-opacity: 1; stroke-width: 0;"/></g></g><g class="errorbars"/><g class="lines"><path class="js-line" d="M36.87,38.2L36.87,302.84L47.49,302.84L47.49,38.2L36.87,38.2L36.87,38.2" style="vector-effect: non-scaling-stroke; fill: none; stroke: rgb(0, 0, 0); stroke-opacity: 1; stroke-width: 1px; opacity: 1;"/></g><g class="points"/><g class="text"/></g><g class="trace scatter trace8dbcf4" style="stroke-miterlimit: 2;"><g class="fills"><g><path class="js-fill" d="M47.49,302.84L47.49,302.84L47.49,30.1L47.49,302.84L58.1,302.84L58.1,30.1L47.49,30.1L47.49,30.1" style="fill: rgb(0, 154, 250); fill-opacity: 1; stroke-width: 0;"/></g></g><g class="errorbars"/><g class="lines"><path class="js-line" d="M47.49,30.1L47.49,302.84L58.1,302.84L58.1,30.1L47.49,30.1L47.49,30.1" style="vector-effect: non-scaling-stroke; fill: none; stroke: rgb(0, 0, 0); stroke-opacity: 1; stroke-width: 1px; opacity: 1;"/></g><g class="points"/><g class="text"/></g><g class="trace scatter trace3ca4ae" style="stroke-miterlimit: 2;"><g class="fills"><g><path class="js-fill" d="M58.1,302.84L58.1,302.84L58.1,8.82L58.1,302.84L68.72,302.84L68.72,8.82L58.1,8.82L58.1,8.82" style="fill: rgb(0, 154, 250); fill-opacity: 1; stroke-width: 0;"/></g></g><g class="errorbars"/><g class="lines"><path class="js-line" d="M58.1,8.82L58.1,302.84L68.72,302.84L68.72,8.82L58.1,8.82L58.1,8.82" style="vector-effect: non-scaling-stroke; fill: none; stroke: rgb(0, 0, 0); stroke-opacity: 1; stroke-width: 1px; opacity: 1;"/></g><g class="points"/><g class="text"/></g><g class="trace scatter traceff4a49" style="stroke-miterlimit: 2;"><g class="fills"><g><path class="js-fill" d="M68.72,302.84L68.72,302.84L68.72,29.41L68.72,302.84L79.34,302.84L79.34,29.41L68.72,29.41L68.72,29.41" style="fill: rgb(0, 154, 250); fill-opacity: 1; stroke-width: 0;"/></g></g><g class="errorbars"/><g class="lines"><path class="js-line" d="M68.72,29.41L68.72,302.84L79.34,302.84L79.34,29.41L68.72,29.41L68.72,29.41" style="vector-effect: non-scaling-stroke; fill: none; stroke: rgb(0, 0, 0); stroke-opacity: 1; stroke-width: 1px; opacity: 1;"/></g><g class="points"/><g class="text"/></g><g class="trace scatter tracebcfb98" style="stroke-miterlimit: 2;"><g class="fills"><g><path class="js-fill" d="M79.34,302.84L79.34,302.84L79.34,26.17L79.34,302.84L89.96,302.84L89.96,26.17L79.34,26.17L79.34,26.17" style="fill: rgb(0, 154, 250); fill-opacity: 1; stroke-width: 0;"/></g></g><g class="errorbars"/><g class="lines"><path class="js-line" d="M79.34,26.17L79.34,302.84L89.96,302.84L89.96,26.17L79.34,26.17L79.34,26.17" style="vector-effect: non-scaling-stroke; fill: none; stroke: rgb(0, 0, 0); stroke-opacity: 1; stroke-width: 1px; opacity: 1;"/></g><g class="points"/><g class="text"/></g><g class="trace scatter trace022e90" style="stroke-miterlimit: 2;"><g class="fills"><g><path class="js-fill" d="M89.96,302.84L89.96,302.84L89.96,17.61L89.96,302.84L100.58,302.84L100.58,17.61L89.96,17.61L89.96,17.61" style="fill: rgb(0, 154, 250); fill-opacity: 1; stroke-width: 0;"/></g></g><g class="errorbars"/><g class="lines"><path class="js-line" d="M89.96,17.61L89.96,302.84L100.58,302.84L100.58,17.61L89.96,17.61L89.96,17.61" style="vector-effect: non-scaling-stroke; fill: none; stroke: rgb(0, 0, 0); stroke-opacity: 1; stroke-width: 1px; opacity: 1;"/></g><g class="points"/><g class="text"/></g><g class="trace scatter traced45d6f" style="stroke-miterlimit: 2;"><g class="fills"><g><path class="js-fill" d="M100.58,302.84L100.58,302.84L100.58,39.13L100.58,302.84L111.2,302.84L111.2,39.13L100.58,39.13L100.58,39.13" style="fill: rgb(0, 154, 250); fill-opacity: 1; stroke-width: 0;"/></g></g><g class="errorbars"/><g class="lines"><path class="js-line" d="M100.58,39.13L100.58,302.84L111.2,302.84L111.2,39.13L100.58,39.13L100.58,39.13" style="vector-effect: non-scaling-stroke; fill: none; stroke: rgb(0, 0, 0); stroke-opacity: 1; stroke-width: 1px; opacity: 1;"/></g><g class="points"/><g class="text"/></g><g class="trace scatter trace4c9ca0" style="stroke-miterlimit: 2;"><g class="fills"><g><path class="js-fill" d="M111.2,302.84L111.2,302.84L111.2,20.62L111.2,302.84L121.82,302.84L121.82,20.62L111.2,20.62L111.2,20.62" style="fill: rgb(0, 154, 250); fill-opacity: 1; stroke-width: 0;"/></g></g><g class="errorbars"/><g class="lines"><path class="js-line" d="M111.2,20.62L111.2,302.84L121.82,302.84L121.82,20.62L111.2,20.62L111.2,20.62" style="vector-effect: non-scaling-stroke; fill: none; stroke: rgb(0, 0, 0); stroke-opacity: 1; stroke-width: 1px; opacity: 1;"/></g><g class="points"/><g class="text"/></g><g class="trace scatter trace9346be" style="stroke-miterlimit: 2;"><g class="fills"><g><path class="js-fill" d="M121.82,302.84L121.82,302.84L121.82,31.26L121.82,302.84L132.43,302.84L132.43,31.26L121.82,31.26L121.82,31.26" style="fill: rgb(0, 154, 250); fill-opacity: 1; stroke-width: 0;"/></g></g><g class="errorbars"/><g class="lines"><path class="js-line" d="M121.82,31.26L121.82,302.84L132.43,302.84L132.43,31.26L121.82,31.26L121.82,31.26" style="vector-effect: non-scaling-stroke; fill: none; stroke: rgb(0, 0, 0); stroke-opacity: 1; stroke-width: 1px; opacity: 1;"/></g><g class="points"/><g class="text"/></g><g class="trace scatter trace9ec1a7" style="stroke-miterlimit: 2;"><g class="fills"><g><path class="js-fill" d="M132.43,302.84L132.43,302.84L132.43,19.69L132.43,302.84L143.05,302.84L143.05,19.69L132.43,19.69L132.43,19.69" style="fill: rgb(0, 154, 250); fill-opacity: 1; stroke-width: 0;"/></g></g><g class="errorbars"/><g class="lines"><path class="js-line" d="M132.43,19.69L132.43,302.84L143.05,302.84L143.05,19.69L132.43,19.69L132.43,19.69" style="vector-effect: non-scaling-stroke; fill: none; stroke: rgb(0, 0, 0); stroke-opacity: 1; stroke-width: 1px; opacity: 1;"/></g><g class="points"/><g class="text"/></g><g class="trace scatter traceae9fca" style="stroke-miterlimit: 2;"><g class="fills"><g><path class="js-fill" d="M143.05,302.84L143.05,302.84L143.05,32.42L143.05,302.84L153.67,302.84L153.67,32.42L143.05,32.42L143.05,32.42" style="fill: rgb(0, 154, 250); fill-opacity: 1; stroke-width: 0;"/></g></g><g class="errorbars"/><g class="lines"><path class="js-line" d="M143.05,32.42L143.05,302.84L153.67,302.84L153.67,32.42L143.05,32.42L143.05,32.42" style="vector-effect: non-scaling-stroke; fill: none; stroke: rgb(0, 0, 0); stroke-opacity: 1; stroke-width: 1px; opacity: 1;"/></g><g class="points"/><g class="text"/></g><g class="trace scatter traceb0f7e3" style="stroke-miterlimit: 2;"><g class="fills"><g><path class="js-fill" d="M153.67,302.84L153.67,302.84L153.67,17.61L153.67,302.84L164.29,302.84L164.29,17.61L153.67,17.61L153.67,17.61" style="fill: rgb(0, 154, 250); fill-opacity: 1; stroke-width: 0;"/></g></g><g class="errorbars"/><g class="lines"><path class="js-line" d="M153.67,17.61L153.67,302.84L164.29,302.84L164.29,17.61L153.67,17.61L153.67,17.61" style="vector-effect: non-scaling-stroke; fill: none; stroke: rgb(0, 0, 0); stroke-opacity: 1; stroke-width: 1px; opacity: 1;"/></g><g class="points"/><g class="text"/></g><g class="trace scatter trace979c5c" style="stroke-miterlimit: 2;"><g class="fills"><g><path class="js-fill" d="M164.29,302.84L164.29,302.84L164.29,19.46L164.29,302.84L174.91,302.84L174.91,19.46L164.29,19.46L164.29,19.46" style="fill: rgb(0, 154, 250); fill-opacity: 1; stroke-width: 0;"/></g></g><g class="errorbars"/><g class="lines"><path class="js-line" d="M164.29,19.46L164.29,302.84L174.91,302.84L174.91,19.46L164.29,19.46L164.29,19.46" style="vector-effect: non-scaling-stroke; fill: none; stroke: rgb(0, 0, 0); stroke-opacity: 1; stroke-width: 1px; opacity: 1;"/></g><g class="points"/><g class="text"/></g><g class="trace scatter trace85deed" style="stroke-miterlimit: 2;"><g class="fills"><g><path class="js-fill" d="M174.91,302.84L174.91,302.84L174.91,23.86L174.91,302.84L185.53,302.84L185.53,23.86L174.91,23.86L174.91,23.86" style="fill: rgb(0, 154, 250); fill-opacity: 1; stroke-width: 0;"/></g></g><g class="errorbars"/><g class="lines"><path class="js-line" d="M174.91,23.86L174.91,302.84L185.53,302.84L185.53,23.86L174.91,23.86L174.91,23.86" style="vector-effect: non-scaling-stroke; fill: none; stroke: rgb(0, 0, 0); stroke-opacity: 1; stroke-width: 1px; opacity: 1;"/></g><g class="points"/><g class="text"/></g><g class="trace scatter trace4b5747" style="stroke-miterlimit: 2;"><g class="fills"><g><path class="js-fill" d="M185.53,302.84L185.53,302.84L185.53,23.16L185.53,302.84L196.15,302.84L196.15,23.16L185.53,23.16L185.53,23.16" style="fill: rgb(0, 154, 250); fill-opacity: 1; stroke-width: 0;"/></g></g><g class="errorbars"/><g class="lines"><path class="js-line" d="M185.53,23.16L185.53,302.84L196.15,302.84L196.15,23.16L185.53,23.16L185.53,23.16" style="vector-effect: non-scaling-stroke; fill: none; stroke: rgb(0, 0, 0); stroke-opacity: 1; stroke-width: 1px; opacity: 1;"/></g><g class="points"/><g class="text"/></g><g class="trace scatter trace1f0b8e" style="stroke-miterlimit: 2;"><g class="fills"><g><path class="js-fill" d="M196.15,302.84L196.15,302.84L196.15,15.99L196.15,302.84L206.76,302.84L206.76,15.99L196.15,15.99L196.15,15.99" style="fill: rgb(0, 154, 250); fill-opacity: 1; stroke-width: 0;"/></g></g><g class="errorbars"/><g class="lines"><path class="js-line" d="M196.15,15.99L196.15,302.84L206.76,302.84L206.76,15.99L196.15,15.99L196.15,15.99" style="vector-effect: non-scaling-stroke; fill: none; stroke: rgb(0, 0, 0); stroke-opacity: 1; stroke-width: 1px; opacity: 1;"/></g><g class="points"/><g class="text"/></g><g class="trace scatter tracebbfb8c" style="stroke-miterlimit: 2;"><g class="fills"><g><path class="js-fill" d="M206.76,302.84L206.76,302.84L206.76,27.1L206.76,302.84L217.38,302.84L217.38,27.1L206.76,27.1L206.76,27.1" style="fill: rgb(0, 154, 250); fill-opacity: 1; stroke-width: 0;"/></g></g><g class="errorbars"/><g class="lines"><path class="js-line" d="M206.76,27.1L206.76,302.84L217.38,302.84L217.38,27.1L206.76,27.1L206.76,27.1" style="vector-effect: non-scaling-stroke; fill: none; stroke: rgb(0, 0, 0); stroke-opacity: 1; stroke-width: 1px; opacity: 1;"/></g><g class="points"/><g class="text"/></g><g class="trace scatter trace42d53a" style="stroke-miterlimit: 2;"><g class="fills"><g><path class="js-fill" d="M217.38,302.84L217.38,302.84L217.38,23.86L217.38,302.84L228,302.84L228,23.86L217.38,23.86L217.38,23.86" style="fill: rgb(0, 154, 250); fill-opacity: 1; stroke-width: 0;"/></g></g><g class="errorbars"/><g class="lines"><path class="js-line" d="M217.38,23.86L217.38,302.84L228,302.84L228,23.86L217.38,23.86L217.38,23.86" style="vector-effect: non-scaling-stroke; fill: none; stroke: rgb(0, 0, 0); stroke-opacity: 1; stroke-width: 1px; opacity: 1;"/></g><g class="points"/><g class="text"/></g><g class="trace scatter trace0862f7" style="stroke-miterlimit: 2;"><g class="fills"><g><path class="js-fill" d="M228,302.84L228,302.84L228,27.56L228,302.84L238.62,302.84L238.62,27.56L228,27.56L228,27.56" style="fill: rgb(0, 154, 250); fill-opacity: 1; stroke-width: 0;"/></g></g><g class="errorbars"/><g class="lines"><path class="js-line" d="M228,27.56L228,302.84L238.62,302.84L238.62,27.56L228,27.56L228,27.56" style="vector-effect: non-scaling-stroke; fill: none; stroke: rgb(0, 0, 0); stroke-opacity: 1; stroke-width: 1px; opacity: 1;"/></g><g class="points"/><g class="text"/></g><g class="trace scatter tracee8d21c" style="stroke-miterlimit: 2;"><g class="fills"><g><path class="js-fill" d="M238.62,302.84L238.62,302.84L238.62,21.54L238.62,302.84L249.24,302.84L249.24,21.54L238.62,21.54L238.62,21.54" style="fill: rgb(0, 154, 250); fill-opacity: 1; stroke-width: 0;"/></g></g><g class="errorbars"/><g class="lines"><path class="js-line" d="M238.62,21.54L238.62,302.84L249.24,302.84L249.24,21.54L238.62,21.54L238.62,21.54" style="vector-effect: non-scaling-stroke; fill: none; stroke: rgb(0, 0, 0); stroke-opacity: 1; stroke-width: 1px; opacity: 1;"/></g><g class="points"/><g class="text"/></g><g class="trace scatter trace1195a3" style="stroke-miterlimit: 2;"><g class="fills"><g><path class="js-fill" d="M249.24,302.84L249.24,302.84L249.24,23.16L249.24,302.84L259.86,302.84L259.86,23.16L249.24,23.16L249.24,23.16" style="fill: rgb(0, 154, 250); fill-opacity: 1; stroke-width: 0;"/></g></g><g class="errorbars"/><g class="lines"><path class="js-line" d="M249.24,23.16L249.24,302.84L259.86,302.84L259.86,23.16L249.24,23.16L249.24,23.16" style="vector-effect: non-scaling-stroke; fill: none; stroke: rgb(0, 0, 0); stroke-opacity: 1; stroke-width: 1px; opacity: 1;"/></g><g class="points"/><g class="text"/></g><g class="trace scatter trace2d4d82" style="stroke-miterlimit: 2;"><g class="fills"><g><path class="js-fill" d="M259.86,302.84L259.86,302.84L259.86,32.88L259.86,302.84L270.48,302.84L270.48,32.88L259.86,32.88L259.86,32.88" style="fill: rgb(0, 154, 250); fill-opacity: 1; stroke-width: 0;"/></g></g><g class="errorbars"/><g class="lines"><path class="js-line" d="M259.86,32.88L259.86,302.84L270.48,302.84L270.48,32.88L259.86,32.88L259.86,32.88" style="vector-effect: non-scaling-stroke; fill: none; stroke: rgb(0, 0, 0); stroke-opacity: 1; stroke-width: 1px; opacity: 1;"/></g><g class="points"/><g class="text"/></g><g class="trace scatter trace51ac02" style="stroke-miterlimit: 2;"><g class="fills"><g><path class="js-fill" d="M270.48,302.84L270.48,302.84L270.48,17.84L270.48,302.84L281.09,302.84L281.09,17.84L270.48,17.84L270.48,17.84" style="fill: rgb(0, 154, 250); fill-opacity: 1; stroke-width: 0;"/></g></g><g class="errorbars"/><g class="lines"><path class="js-line" d="M270.48,17.84L270.48,302.84L281.09,302.84L281.09,17.84L270.48,17.84L270.48,17.84" style="vector-effect: non-scaling-stroke; fill: none; stroke: rgb(0, 0, 0); stroke-opacity: 1; stroke-width: 1px; opacity: 1;"/></g><g class="points"/><g class="text"/></g><g class="trace scatter tracef1da4d" style="stroke-miterlimit: 2;"><g class="fills"><g><path class="js-fill" d="M281.09,302.84L281.09,302.84L281.09,21.54L281.09,302.84L291.71,302.84L291.71,21.54L281.09,21.54L281.09,21.54" style="fill: rgb(0, 154, 250); fill-opacity: 1; stroke-width: 0;"/></g></g><g class="errorbars"/><g class="lines"><path class="js-line" d="M281.09,21.54L281.09,302.84L291.71,302.84L291.71,21.54L281.09,21.54L281.09,21.54" style="vector-effect: non-scaling-stroke; fill: none; stroke: rgb(0, 0, 0); stroke-opacity: 1; stroke-width: 1px; opacity: 1;"/></g><g class="points"/><g class="text"/></g><g class="trace scatter tracea61090" style="stroke-miterlimit: 2;"><g class="fills"><g><path class="js-fill" d="M291.71,302.84L291.71,302.84L291.71,30.8L291.71,302.84L302.33,302.84L302.33,30.8L291.71,30.8L291.71,30.8" style="fill: rgb(0, 154, 250); fill-opacity: 1; stroke-width: 0;"/></g></g><g class="errorbars"/><g class="lines"><path class="js-line" d="M291.71,30.8L291.71,302.84L302.33,302.84L302.33,30.8L291.71,30.8L291.71,30.8" style="vector-effect: non-scaling-stroke; fill: none; stroke: rgb(0, 0, 0); stroke-opacity: 1; stroke-width: 1px; opacity: 1;"/></g><g class="points"/><g class="text"/></g><g class="trace scatter trace790f49" style="stroke-miterlimit: 2;"><g class="fills"><g><path class="js-fill" d="M302.33,302.84L302.33,302.84L302.33,25.94L302.33,302.84L312.95,302.84L312.95,25.94L302.33,25.94L302.33,25.94" style="fill: rgb(0, 154, 250); fill-opacity: 1; stroke-width: 0;"/></g></g><g class="errorbars"/><g class="lines"><path class="js-line" d="M302.33,25.94L302.33,302.84L312.95,302.84L312.95,25.94L302.33,25.94L302.33,25.94" style="vector-effect: non-scaling-stroke; fill: none; stroke: rgb(0, 0, 0); stroke-opacity: 1; stroke-width: 1px; opacity: 1;"/></g><g class="points"/><g class="text"/></g><g class="trace scatter trace6438f6" style="stroke-miterlimit: 2;"><g class="fills"><g><path class="js-fill" d="M312.95,302.84L312.95,302.84L312.95,33.11L312.95,302.84L323.57,302.84L323.57,33.11L312.95,33.11L312.95,33.11" style="fill: rgb(0, 154, 250); fill-opacity: 1; stroke-width: 0;"/></g></g><g class="errorbars"/><g class="lines"><path class="js-line" d="M312.95,33.11L312.95,302.84L323.57,302.84L323.57,33.11L312.95,33.11L312.95,33.11" style="vector-effect: non-scaling-stroke; fill: none; stroke: rgb(0, 0, 0); stroke-opacity: 1; stroke-width: 1px; opacity: 1;"/></g><g class="points"/><g class="text"/></g><g class="trace scatter trace637ed5" style="stroke-miterlimit: 2;"><g class="fills"><g><path class="js-fill" d="M323.57,302.84L323.57,302.84L323.57,18.77L323.57,302.84L334.19,302.84L334.19,18.77L323.57,18.77L323.57,18.77" style="fill: rgb(0, 154, 250); fill-opacity: 1; stroke-width: 0;"/></g></g><g class="errorbars"/><g class="lines"><path class="js-line" d="M323.57,18.77L323.57,302.84L334.19,302.84L334.19,18.77L323.57,18.77L323.57,18.77" style="vector-effect: non-scaling-stroke; fill: none; stroke: rgb(0, 0, 0); stroke-opacity: 1; stroke-width: 1px; opacity: 1;"/></g><g class="points"/><g class="text"/></g><g class="trace scatter tracecdbaf4" style="stroke-miterlimit: 2;"><g class="fills"><g><path class="js-fill" d="M334.19,302.84L334.19,302.84L334.19,28.25L334.19,302.84L344.81,302.84L344.81,28.25L334.19,28.25L334.19,28.25" style="fill: rgb(0, 154, 250); fill-opacity: 1; stroke-width: 0;"/></g></g><g class="errorbars"/><g class="lines"><path class="js-line" d="M334.19,28.25L334.19,302.84L344.81,302.84L344.81,28.25L334.19,28.25L334.19,28.25" style="vector-effect: non-scaling-stroke; fill: none; stroke: rgb(0, 0, 0); stroke-opacity: 1; stroke-width: 1px; opacity: 1;"/></g><g class="points"/><g class="text"/></g><g class="trace scatter tracef8b9f7" style="stroke-miterlimit: 2;"><g class="fills"><g><path class="js-fill" d="M344.81,302.84L344.81,302.84L344.81,25.01L344.81,302.84L355.42,302.84L355.42,25.01L344.81,25.01L344.81,25.01" style="fill: rgb(0, 154, 250); fill-opacity: 1; stroke-width: 0;"/></g></g><g class="errorbars"/><g class="lines"><path class="js-line" d="M344.81,25.01L344.81,302.84L355.42,302.84L355.42,25.01L344.81,25.01L344.81,25.01" style="vector-effect: non-scaling-stroke; fill: none; stroke: rgb(0, 0, 0); stroke-opacity: 1; stroke-width: 1px; opacity: 1;"/></g><g class="points"/><g class="text"/></g><g class="trace scatter tracef27904" style="stroke-miterlimit: 2;"><g class="fills"><g><path class="js-fill" d="M355.42,302.84L355.42,302.84L355.42,24.78L355.42,302.84L366.04,302.84L366.04,24.78L355.42,24.78L355.42,24.78" style="fill: rgb(0, 154, 250); fill-opacity: 1; stroke-width: 0;"/></g></g><g class="errorbars"/><g class="lines"><path class="js-line" d="M355.42,24.78L355.42,302.84L366.04,302.84L366.04,24.78L355.42,24.78L355.42,24.78" style="vector-effect: non-scaling-stroke; fill: none; stroke: rgb(0, 0, 0); stroke-opacity: 1; stroke-width: 1px; opacity: 1;"/></g><g class="points"/><g class="text"/></g><g class="trace scatter trace6f2689" style="stroke-miterlimit: 2;"><g class="fills"><g><path class="js-fill" d="M366.04,302.84L366.04,302.84L366.04,35.66L366.04,302.84L376.66,302.84L376.66,35.66L366.04,35.66L366.04,35.66" style="fill: rgb(0, 154, 250); fill-opacity: 1; stroke-width: 0;"/></g></g><g class="errorbars"/><g class="lines"><path class="js-line" d="M366.04,35.66L366.04,302.84L376.66,302.84L376.66,35.66L366.04,35.66L366.04,35.66" style="vector-effect: non-scaling-stroke; fill: none; stroke: rgb(0, 0, 0); stroke-opacity: 1; stroke-width: 1px; opacity: 1;"/></g><g class="points"/><g class="text"/></g><g class="trace scatter trace5b5409" style="stroke-miterlimit: 2;"><g class="fills"><g><path class="js-fill" d="M376.66,302.84L376.66,302.84L376.66,26.4L376.66,302.84L387.28,302.84L387.28,26.4L376.66,26.4L376.66,26.4" style="fill: rgb(0, 154, 250); fill-opacity: 1; stroke-width: 0;"/></g></g><g class="errorbars"/><g class="lines"><path class="js-line" d="M376.66,26.4L376.66,302.84L387.28,302.84L387.28,26.4L376.66,26.4L376.66,26.4" style="vector-effect: non-scaling-stroke; fill: none; stroke: rgb(0, 0, 0); stroke-opacity: 1; stroke-width: 1px; opacity: 1;"/></g><g class="points"/><g class="text"/></g><g class="trace scatter trace8fe432" style="stroke-miterlimit: 2;"><g class="fills"><g><path class="js-fill" d="M387.28,302.84L387.28,302.84L387.28,24.09L387.28,302.84L397.9,302.84L397.9,24.09L387.28,24.09L387.28,24.09" style="fill: rgb(0, 154, 250); fill-opacity: 1; stroke-width: 0;"/></g></g><g class="errorbars"/><g class="lines"><path class="js-line" d="M387.28,24.09L387.28,302.84L397.9,302.84L397.9,24.09L387.28,24.09L387.28,24.09" style="vector-effect: non-scaling-stroke; fill: none; stroke: rgb(0, 0, 0); stroke-opacity: 1; stroke-width: 1px; opacity: 1;"/></g><g class="points"/><g class="text"/></g><g class="trace scatter trace4b7cde" style="stroke-miterlimit: 2;"><g class="fills"><g><path class="js-fill" d="M397.9,302.84L397.9,302.84L397.9,20.62L397.9,302.84L408.52,302.84L408.52,20.62L397.9,20.62L397.9,20.62" style="fill: rgb(0, 154, 250); fill-opacity: 1; stroke-width: 0;"/></g></g><g class="errorbars"/><g class="lines"><path class="js-line" d="M397.9,20.62L397.9,302.84L408.52,302.84L408.52,20.62L397.9,20.62L397.9,20.62" style="vector-effect: non-scaling-stroke; fill: none; stroke: rgb(0, 0, 0); stroke-opacity: 1; stroke-width: 1px; opacity: 1;"/></g><g class="points"/><g class="text"/></g><g class="trace scatter tracec67256" style="stroke-miterlimit: 2;"><g class="fills"><g><path class="js-fill" d="M408.52,302.84L408.52,302.84L408.52,21.08L408.52,302.84L419.14,302.84L419.14,21.08L408.52,21.08L408.52,21.08" style="fill: rgb(0, 154, 250); fill-opacity: 1; stroke-width: 0;"/></g></g><g class="errorbars"/><g class="lines"><path class="js-line" d="M408.52,21.08L408.52,302.84L419.14,302.84L419.14,21.08L408.52,21.08L408.52,21.08" style="vector-effect: non-scaling-stroke; fill: none; stroke: rgb(0, 0, 0); stroke-opacity: 1; stroke-width: 1px; opacity: 1;"/></g><g class="points"/><g class="text"/></g><g class="trace scatter trace520f1d" style="stroke-miterlimit: 2;"><g class="fills"><g><path class="js-fill" d="M419.14,302.84L419.14,302.84L419.14,32.19L419.14,302.84L429.75,302.84L429.75,32.19L419.14,32.19L419.14,32.19" style="fill: rgb(0, 154, 250); fill-opacity: 1; stroke-width: 0;"/></g></g><g class="errorbars"/><g class="lines"><path class="js-line" d="M419.14,32.19L419.14,302.84L429.75,302.84L429.75,32.19L419.14,32.19L419.14,32.19" style="vector-effect: non-scaling-stroke; fill: none; stroke: rgb(0, 0, 0); stroke-opacity: 1; stroke-width: 1px; opacity: 1;"/></g><g class="points"/><g class="text"/></g><g class="trace scatter traceaa1a96" style="stroke-miterlimit: 2;"><g class="fills"><g><path class="js-fill" d="M429.75,302.84L429.75,302.84L429.75,17.61L429.75,302.84L440.37,302.84L440.37,17.61L429.75,17.61L429.75,17.61" style="fill: rgb(0, 154, 250); fill-opacity: 1; stroke-width: 0;"/></g></g><g class="errorbars"/><g class="lines"><path class="js-line" d="M429.75,17.61L429.75,302.84L440.37,302.84L440.37,17.61L429.75,17.61L429.75,17.61" style="vector-effect: non-scaling-stroke; fill: none; stroke: rgb(0, 0, 0); stroke-opacity: 1; stroke-width: 1px; opacity: 1;"/></g><g class="points"/><g class="text"/></g><g class="trace scatter trace0317a8" style="stroke-miterlimit: 2;"><g class="fills"><g><path class="js-fill" d="M440.37,302.84L440.37,302.84L440.37,18.54L440.37,302.84L450.99,302.84L450.99,18.54L440.37,18.54L440.37,18.54" style="fill: rgb(0, 154, 250); fill-opacity: 1; stroke-width: 0;"/></g></g><g class="errorbars"/><g class="lines"><path class="js-line" d="M440.37,18.54L440.37,302.84L450.99,302.84L450.99,18.54L440.37,18.54L440.37,18.54" style="vector-effect: non-scaling-stroke; fill: none; stroke: rgb(0, 0, 0); stroke-opacity: 1; stroke-width: 1px; opacity: 1;"/></g><g class="points"/><g class="text"/></g><g class="trace scatter trace05099e" style="stroke-miterlimit: 2; opacity: 1;"><g class="fills"/><g class="errorbars"/><g class="lines"/><g class="points"><path class="point" transform="translate(31.56,37.97)" d="M3,0A3,3 0 1,1 0,-3A3,3 0 0,1 3,0Z" style="opacity: 1; stroke-width: 1px; fill: rgb(0, 154, 250); fill-opacity: 0; stroke: rgb(0, 0, 0); stroke-opacity: 0;"/><path class="point" transform="translate(42.18,38.2)" d="M3,0A3,3 0 1,1 0,-3A3,3 0 0,1 3,0Z" style="opacity: 1; stroke-width: 1px; fill: rgb(0, 154, 250); fill-opacity: 0; stroke: rgb(0, 0, 0); stroke-opacity: 0;"/><path class="point" transform="translate(52.8,30.1)" d="M3,0A3,3 0 1,1 0,-3A3,3 0 0,1 3,0Z" style="opacity: 1; stroke-width: 1px; fill: rgb(0, 154, 250); fill-opacity: 0; stroke: rgb(0, 0, 0); stroke-opacity: 0;"/><path class="point" transform="translate(63.41,8.82)" d="M3,0A3,3 0 1,1 0,-3A3,3 0 0,1 3,0Z" style="opacity: 1; stroke-width: 1px; fill: rgb(0, 154, 250); fill-opacity: 0; stroke: rgb(0, 0, 0); stroke-opacity: 0;"/><path class="point" transform="translate(74.03,29.41)" d="M3,0A3,3 0 1,1 0,-3A3,3 0 0,1 3,0Z" style="opacity: 1; stroke-width: 1px; fill: rgb(0, 154, 250); fill-opacity: 0; stroke: rgb(0, 0, 0); stroke-opacity: 0;"/><path class="point" transform="translate(84.65,26.17)" d="M3,0A3,3 0 1,1 0,-3A3,3 0 0,1 3,0Z" style="opacity: 1; stroke-width: 1px; fill: rgb(0, 154, 250); fill-opacity: 0; stroke: rgb(0, 0, 0); stroke-opacity: 0;"/><path class="point" transform="translate(95.27,17.61)" d="M3,0A3,3 0 1,1 0,-3A3,3 0 0,1 3,0Z" style="opacity: 1; stroke-width: 1px; fill: rgb(0, 154, 250); fill-opacity: 0; stroke: rgb(0, 0, 0); stroke-opacity: 0;"/><path class="point" transform="translate(105.89,39.13)" d="M3,0A3,3 0 1,1 0,-3A3,3 0 0,1 3,0Z" style="opacity: 1; stroke-width: 1px; fill: rgb(0, 154, 250); fill-opacity: 0; stroke: rgb(0, 0, 0); stroke-opacity: 0;"/><path class="point" transform="translate(116.51,20.62)" d="M3,0A3,3 0 1,1 0,-3A3,3 0 0,1 3,0Z" style="opacity: 1; stroke-width: 1px; fill: rgb(0, 154, 250); fill-opacity: 0; stroke: rgb(0, 0, 0); stroke-opacity: 0;"/><path class="point" transform="translate(127.13,31.26)" d="M3,0A3,3 0 1,1 0,-3A3,3 0 0,1 3,0Z" style="opacity: 1; stroke-width: 1px; fill: rgb(0, 154, 250); fill-opacity: 0; stroke: rgb(0, 0, 0); stroke-opacity: 0;"/><path class="point" transform="translate(137.74,19.69)" d="M3,0A3,3 0 1,1 0,-3A3,3 0 0,1 3,0Z" style="opacity: 1; stroke-width: 1px; fill: rgb(0, 154, 250); fill-opacity: 0; stroke: rgb(0, 0, 0); stroke-opacity: 0;"/><path class="point" transform="translate(148.36,32.42)" d="M3,0A3,3 0 1,1 0,-3A3,3 0 0,1 3,0Z" style="opacity: 1; stroke-width: 1px; fill: rgb(0, 154, 250); fill-opacity: 0; stroke: rgb(0, 0, 0); stroke-opacity: 0;"/><path class="point" transform="translate(158.98,17.61)" d="M3,0A3,3 0 1,1 0,-3A3,3 0 0,1 3,0Z" style="opacity: 1; stroke-width: 1px; fill: rgb(0, 154, 250); fill-opacity: 0; stroke: rgb(0, 0, 0); stroke-opacity: 0;"/><path class="point" transform="translate(169.6,19.46)" d="M3,0A3,3 0 1,1 0,-3A3,3 0 0,1 3,0Z" style="opacity: 1; stroke-width: 1px; fill: rgb(0, 154, 250); fill-opacity: 0; stroke: rgb(0, 0, 0); stroke-opacity: 0;"/><path class="point" transform="translate(180.22,23.86)" d="M3,0A3,3 0 1,1 0,-3A3,3 0 0,1 3,0Z" style="opacity: 1; stroke-width: 1px; fill: rgb(0, 154, 250); fill-opacity: 0; stroke: rgb(0, 0, 0); stroke-opacity: 0;"/><path class="point" transform="translate(190.84,23.16)" d="M3,0A3,3 0 1,1 0,-3A3,3 0 0,1 3,0Z" style="opacity: 1; stroke-width: 1px; fill: rgb(0, 154, 250); fill-opacity: 0; stroke: rgb(0, 0, 0); stroke-opacity: 0;"/><path class="point" transform="translate(201.45,15.99)" d="M3,0A3,3 0 1,1 0,-3A3,3 0 0,1 3,0Z" style="opacity: 1; stroke-width: 1px; fill: rgb(0, 154, 250); fill-opacity: 0; stroke: rgb(0, 0, 0); stroke-opacity: 0;"/><path class="point" transform="translate(212.07,27.1)" d="M3,0A3,3 0 1,1 0,-3A3,3 0 0,1 3,0Z" style="opacity: 1; stroke-width: 1px; fill: rgb(0, 154, 250); fill-opacity: 0; stroke: rgb(0, 0, 0); stroke-opacity: 0;"/><path class="point" transform="translate(222.69,23.86)" d="M3,0A3,3 0 1,1 0,-3A3,3 0 0,1 3,0Z" style="opacity: 1; stroke-width: 1px; fill: rgb(0, 154, 250); fill-opacity: 0; stroke: rgb(0, 0, 0); stroke-opacity: 0;"/><path class="point" transform="translate(233.31,27.56)" d="M3,0A3,3 0 1,1 0,-3A3,3 0 0,1 3,0Z" style="opacity: 1; stroke-width: 1px; fill: rgb(0, 154, 250); fill-opacity: 0; stroke: rgb(0, 0, 0); stroke-opacity: 0;"/><path class="point" transform="translate(243.93,21.54)" d="M3,0A3,3 0 1,1 0,-3A3,3 0 0,1 3,0Z" style="opacity: 1; stroke-width: 1px; fill: rgb(0, 154, 250); fill-opacity: 0; stroke: rgb(0, 0, 0); stroke-opacity: 0;"/><path class="point" transform="translate(254.55,23.16)" d="M3,0A3,3 0 1,1 0,-3A3,3 0 0,1 3,0Z" style="opacity: 1; stroke-width: 1px; fill: rgb(0, 154, 250); fill-opacity: 0; stroke: rgb(0, 0, 0); stroke-opacity: 0;"/><path class="point" transform="translate(265.17,32.88)" d="M3,0A3,3 0 1,1 0,-3A3,3 0 0,1 3,0Z" style="opacity: 1; stroke-width: 1px; fill: rgb(0, 154, 250); fill-opacity: 0; stroke: rgb(0, 0, 0); stroke-opacity: 0;"/><path class="point" transform="translate(275.78,17.84)" d="M3,0A3,3 0 1,1 0,-3A3,3 0 0,1 3,0Z" style="opacity: 1; stroke-width: 1px; fill: rgb(0, 154, 250); fill-opacity: 0; stroke: rgb(0, 0, 0); stroke-opacity: 0;"/><path class="point" transform="translate(286.4,21.54)" d="M3,0A3,3 0 1,1 0,-3A3,3 0 0,1 3,0Z" style="opacity: 1; stroke-width: 1px; fill: rgb(0, 154, 250); fill-opacity: 0; stroke: rgb(0, 0, 0); stroke-opacity: 0;"/><path class="point" transform="translate(297.02,30.8)" d="M3,0A3,3 0 1,1 0,-3A3,3 0 0,1 3,0Z" style="opacity: 1; stroke-width: 1px; fill: rgb(0, 154, 250); fill-opacity: 0; stroke: rgb(0, 0, 0); stroke-opacity: 0;"/><path class="point" transform="translate(307.64,25.94)" d="M3,0A3,3 0 1,1 0,-3A3,3 0 0,1 3,0Z" style="opacity: 1; stroke-width: 1px; fill: rgb(0, 154, 250); fill-opacity: 0; stroke: rgb(0, 0, 0); stroke-opacity: 0;"/><path class="point" transform="translate(318.26,33.11)" d="M3,0A3,3 0 1,1 0,-3A3,3 0 0,1 3,0Z" style="opacity: 1; stroke-width: 1px; fill: rgb(0, 154, 250); fill-opacity: 0; stroke: rgb(0, 0, 0); stroke-opacity: 0;"/><path class="point" transform="translate(328.88,18.77)" d="M3,0A3,3 0 1,1 0,-3A3,3 0 0,1 3,0Z" style="opacity: 1; stroke-width: 1px; fill: rgb(0, 154, 250); fill-opacity: 0; stroke: rgb(0, 0, 0); stroke-opacity: 0;"/><path class="point" transform="translate(339.5,28.25)" d="M3,0A3,3 0 1,1 0,-3A3,3 0 0,1 3,0Z" style="opacity: 1; stroke-width: 1px; fill: rgb(0, 154, 250); fill-opacity: 0; stroke: rgb(0, 0, 0); stroke-opacity: 0;"/><path class="point" transform="translate(350.11,25.01)" d="M3,0A3,3 0 1,1 0,-3A3,3 0 0,1 3,0Z" style="opacity: 1; stroke-width: 1px; fill: rgb(0, 154, 250); fill-opacity: 0; stroke: rgb(0, 0, 0); stroke-opacity: 0;"/><path class="point" transform="translate(360.73,24.78)" d="M3,0A3,3 0 1,1 0,-3A3,3 0 0,1 3,0Z" style="opacity: 1; stroke-width: 1px; fill: rgb(0, 154, 250); fill-opacity: 0; stroke: rgb(0, 0, 0); stroke-opacity: 0;"/><path class="point" transform="translate(371.35,35.66)" d="M3,0A3,3 0 1,1 0,-3A3,3 0 0,1 3,0Z" style="opacity: 1; stroke-width: 1px; fill: rgb(0, 154, 250); fill-opacity: 0; stroke: rgb(0, 0, 0); stroke-opacity: 0;"/><path class="point" transform="translate(381.97,26.4)" d="M3,0A3,3 0 1,1 0,-3A3,3 0 0,1 3,0Z" style="opacity: 1; stroke-width: 1px; fill: rgb(0, 154, 250); fill-opacity: 0; stroke: rgb(0, 0, 0); stroke-opacity: 0;"/><path class="point" transform="translate(392.59,24.09)" d="M3,0A3,3 0 1,1 0,-3A3,3 0 0,1 3,0Z" style="opacity: 1; stroke-width: 1px; fill: rgb(0, 154, 250); fill-opacity: 0; stroke: rgb(0, 0, 0); stroke-opacity: 0;"/><path class="point" transform="translate(403.21,20.62)" d="M3,0A3,3 0 1,1 0,-3A3,3 0 0,1 3,0Z" style="opacity: 1; stroke-width: 1px; fill: rgb(0, 154, 250); fill-opacity: 0; stroke: rgb(0, 0, 0); stroke-opacity: 0;"/><path class="point" transform="translate(413.83,21.08)" d="M3,0A3,3 0 1,1 0,-3A3,3 0 0,1 3,0Z" style="opacity: 1; stroke-width: 1px; fill: rgb(0, 154, 250); fill-opacity: 0; stroke: rgb(0, 0, 0); stroke-opacity: 0;"/><path class="point" transform="translate(424.44,32.19)" d="M3,0A3,3 0 1,1 0,-3A3,3 0 0,1 3,0Z" style="opacity: 1; stroke-width: 1px; fill: rgb(0, 154, 250); fill-opacity: 0; stroke: rgb(0, 0, 0); stroke-opacity: 0;"/><path class="point" transform="translate(435.06,17.61)" d="M3,0A3,3 0 1,1 0,-3A3,3 0 0,1 3,0Z" style="opacity: 1; stroke-width: 1px; fill: rgb(0, 154, 250); fill-opacity: 0; stroke: rgb(0, 0, 0); stroke-opacity: 0;"/><path class="point" transform="translate(445.68,18.54)" d="M3,0A3,3 0 1,1 0,-3A3,3 0 0,1 3,0Z" style="opacity: 1; stroke-width: 1px; fill: rgb(0, 154, 250); fill-opacity: 0; stroke: rgb(0, 0, 0); stroke-opacity: 0;"/></g><g class="text"/></g></g></g><g class="overplot"/><path class="xlines-above crisp" d="M47.28918416447943,353.20669291338584H525.5288713910761" style="fill: none; stroke-width: 1px; stroke: rgb(0, 0, 0); stroke-opacity: 1;"/><path class="ylines-above crisp" d="M47.78918416447943,41.04330708661415V352.70669291338584" style="fill: none; stroke-width: 1px; stroke: rgb(0, 0, 0); stroke-opacity: 1;"/><g class="overlines-above"/><g class="xaxislayer-above"><path class="xtick ticks crisp" d="M0,352.70669291338584v-5" transform="translate(74.53918416447942,0)" style="stroke: rgb(0, 0, 0); stroke-opacity: 1; stroke-width: 1px;"/><path class="xtick ticks crisp" d="M0,352.70669291338584v-5" transform="translate(180.71918416447943,0)" style="stroke: rgb(0, 0, 0); stroke-opacity: 1; stroke-width: 1px;"/><path class="xtick ticks crisp" d="M0,352.70669291338584v-5" transform="translate(286.9091841644794,0)" style="stroke: rgb(0, 0, 0); stroke-opacity: 1; stroke-width: 1px;"/><path class="xtick ticks crisp" d="M0,352.70669291338584v-5" transform="translate(393.0991841644794,0)" style="stroke: rgb(0, 0, 0); stroke-opacity: 1; stroke-width: 1px;"/><path class="xtick ticks crisp" d="M0,352.70669291338584v-5" transform="translate(499.27918416447943,0)" style="stroke: rgb(0, 0, 0); stroke-opacity: 1; stroke-width: 1px;"/><g class="xtick"><text text-anchor="middle" x="0" y="366.9066929133858" transform="translate(74.53918416447942,0)" style="font-family: sans-serif; font-size: 11px; fill: rgb(0, 0, 0); fill-opacity: 1; white-space: pre; opacity: 1;">-1.0</text></g><g class="xtick"><text text-anchor="middle" x="0" y="366.9066929133858" style="font-family: sans-serif; font-size: 11px; fill: rgb(0, 0, 0); fill-opacity: 1; white-space: pre; opacity: 1;" transform="translate(180.71918416447943,0)">-0.5</text></g><g class="xtick"><text text-anchor="middle" x="0" y="366.9066929133858" style="font-family: sans-serif; font-size: 11px; fill: rgb(0, 0, 0); fill-opacity: 1; white-space: pre; opacity: 1;" transform="translate(286.9091841644794,0)">0.0</text></g><g class="xtick"><text text-anchor="middle" x="0" y="366.9066929133858" style="font-family: sans-serif; font-size: 11px; fill: rgb(0, 0, 0); fill-opacity: 1; white-space: pre; opacity: 1;" transform="translate(393.0991841644794,0)">0.5</text></g><g class="xtick"><text text-anchor="middle" x="0" y="366.9066929133858" style="font-family: sans-serif; font-size: 11px; fill: rgb(0, 0, 0); fill-opacity: 1; white-space: pre; opacity: 1;" transform="translate(499.27918416447943,0)">1.0</text></g></g><g class="yaxislayer-above"><path class="ytick ticks crisp" d="M48.28918416447943,0h5" transform="translate(0,343.88330708661414)" style="stroke: rgb(0, 0, 0); stroke-opacity: 1; stroke-width: 1px;"/><path class="ytick ticks crisp" d="M48.28918416447943,0h5" transform="translate(0,297.62330708661415)" style="stroke: rgb(0, 0, 0); stroke-opacity: 1; stroke-width: 1px;"/><path class="ytick ticks crisp" d="M48.28918416447943,0h5" transform="translate(0,251.35330708661417)" style="stroke: rgb(0, 0, 0); stroke-opacity: 1; stroke-width: 1px;"/><path class="ytick ticks crisp" d="M48.28918416447943,0h5" transform="translate(0,205.08330708661413)" style="stroke: rgb(0, 0, 0); stroke-opacity: 1; stroke-width: 1px;"/><path class="ytick ticks crisp" d="M48.28918416447943,0h5" transform="translate(0,158.82330708661414)" style="stroke: rgb(0, 0, 0); stroke-opacity: 1; stroke-width: 1px;"/><path class="ytick ticks crisp" d="M48.28918416447943,0h5" transform="translate(0,112.55330708661415)" style="stroke: rgb(0, 0, 0); stroke-opacity: 1; stroke-width: 1px;"/><path class="ytick ticks crisp" d="M48.28918416447943,0h5" transform="translate(0,66.29330708661415)" style="stroke: rgb(0, 0, 0); stroke-opacity: 1; stroke-width: 1px;"/><g class="ytick"><text text-anchor="end" x="45.08918416447943" y="3.8499999999999996" transform="translate(0,343.88330708661414)" style="font-family: sans-serif; font-size: 11px; fill: rgb(0, 0, 0); fill-opacity: 1; white-space: pre; opacity: 1;">0</text></g><g class="ytick"><text text-anchor="end" x="45.08918416447943" y="3.8499999999999996" style="font-family: sans-serif; font-size: 11px; fill: rgb(0, 0, 0); fill-opacity: 1; white-space: pre; opacity: 1;" transform="translate(0,297.62330708661415)">200</text></g><g class="ytick"><text text-anchor="end" x="45.08918416447943" y="3.8499999999999996" style="font-family: sans-serif; font-size: 11px; fill: rgb(0, 0, 0); fill-opacity: 1; white-space: pre; opacity: 1;" transform="translate(0,251.35330708661417)">400</text></g><g class="ytick"><text text-anchor="end" x="45.08918416447943" y="3.8499999999999996" style="font-family: sans-serif; font-size: 11px; fill: rgb(0, 0, 0); fill-opacity: 1; white-space: pre; opacity: 1;" transform="translate(0,205.08330708661413)">600</text></g><g class="ytick"><text text-anchor="end" x="45.08918416447943" y="3.8499999999999996" style="font-family: sans-serif; font-size: 11px; fill: rgb(0, 0, 0); fill-opacity: 1; white-space: pre; opacity: 1;" transform="translate(0,158.82330708661414)">800</text></g><g class="ytick"><text text-anchor="end" x="45.08918416447943" y="3.8499999999999996" style="font-family: sans-serif; font-size: 11px; fill: rgb(0, 0, 0); fill-opacity: 1; white-space: pre; opacity: 1;" transform="translate(0,112.55330708661415)">1000</text></g><g class="ytick"><text text-anchor="end" x="45.08918416447943" y="3.8499999999999996" style="font-family: sans-serif; font-size: 11px; fill: rgb(0, 0, 0); fill-opacity: 1; white-space: pre; opacity: 1;" transform="translate(0,66.29330708661415)">1200</text></g></g><g class="overaxes-above"/></g></g><g class="polarlayer"/><g class="ternarylayer"/><g class="geolayer"/><g class="funnelarealayer"/><g class="pielayer"/><g class="iciclelayer"/><g class="treemaplayer"/><g class="sunburstlayer"/><g class="glimages"/><defs id="topdefs-1233b6"><g class="clips"/><clipPath id="legend1233b6"><rect width="60" height="29" x="0" y="0"/></clipPath></defs><g class="layer-above"><g class="imagelayer"/><g class="shapelayer"/></g><g class="infolayer"><g class="legend" pointer-events="all" transform="translate(539.58,20)"><rect class="bg" shape-rendering="crispEdges" width="60" height="29" x="0" y="0" style="stroke: rgb(68, 68, 68); stroke-opacity: 1; fill: rgb(255, 255, 255); fill-opacity: 1; stroke-width: 0px;"/><g class="scrollbox" transform="" clip-path="url(#legend1233b6)"><g class="groups" transform=""><g class="traces" transform="translate(0,14.5)" style="opacity: 1;"><text class="legendtext" text-anchor="start" x="40" y="4.680000000000001" style="font-family: 'Open Sans', verdana, arial, sans-serif; font-size: 12px; fill: rgb(68, 68, 68); fill-opacity: 1; white-space: pre;">y1</text><g class="layers"><g class="legendfill"><path class="js-fill" d="M5,-2h30v6h-30z" style="stroke-width: 0; fill: rgb(0, 154, 250); fill-opacity: 1;"/></g><g class="legendlines"><path class="js-line" d="M5,-2h30" style="fill: none; stroke: rgb(0, 0, 0); stroke-opacity: 1; stroke-width: 1px;"/></g><g class="legendsymbols"><g class="legendpoints"/></g></g><rect class="legendtoggle" x="0" y="-9.5" width="54.734375" height="19" style="fill: rgb(0, 0, 0); fill-opacity: 0;"/></g></g></g><rect class="scrollbar" rx="20" ry="3" width="0" height="0" x="0" y="0" style="fill: rgb(128, 139, 164); fill-opacity: 1;"/></g><g class="g-gtitle"/><g class="g-xtitle" transform="translate(0,-11.206692913385837)"><text class="xtitle" x="286.9090277777778" y="407.70669291338584" text-anchor="middle" style="font-family: sans-serif; font-size: 15px; fill: rgb(0, 0, 0); opacity: 1; font-weight: normal; white-space: pre;">Number Generated</text></g><g class="g-ytitle" transform="translate(5.7109375,0)"><text class="ytitle" transform="rotate(-90,8.28918416447943,196.875)" x="8.28918416447943" y="196.875" text-anchor="middle" style="font-family: sans-serif; font-size: 15px; fill: rgb(0, 0, 0); opacity: 1; font-weight: normal; white-space: pre;">Frequency</text></g><g class="annotation" data-index="0" style="opacity: 1;"><g class="annotation-text-g" transform="rotate(0,286.90902777777774,33.50000000000001)"><g class="cursor-pointer" transform="translate(152,20)"><rect class="bg" x="0.5" y="0.5" width="268" height="26" style="stroke-width: 1px; stroke: rgb(0, 0, 0); stroke-opacity: 0; fill: rgb(0, 0, 0); fill-opacity: 0;"/><text class="annotation-text" text-anchor="middle" x="134.28125" y="20.5" style="font-family: sans-serif; font-size: 20px; fill: rgb(0, 0, 0); fill-opacity: 1; white-space: pre;">Random Number Distrobution</text></g></g></g></g></svg>